<svg id="Capa_1" data-name="Capa 1" xmlns="http://www.w3.org/2000/svg" viewBox="0 0 22.3 14.77"><defs><style>.cls-1{fill:#f9423a;}</style></defs><title>Artboard 31</title><path class="cls-1" d="M2.48,14.77H.1L4.58,2.28A3.44,3.44,0,0,1,7.83,0h.61Z"/><path class="cls-1" d="M8.44,0h0A2.76,2.76,0,0,1,11.2,2.76v12a0,0,0,0,1,0,0h0A2.76,2.76,0,0,1,8.44,12V0A0,0,0,0,1,8.44,0Z"/><path class="cls-1" d="M11.33,14.77H11.2L15.48,2.86A4.3,4.3,0,0,1,19.54,0h0L14.42,12.68A3.34,3.34,0,0,1,11.33,14.77Z"/><path class="cls-1" d="M19.54,0h0A2.76,2.76,0,0,1,22.3,2.76v12a0,0,0,0,1,0,0H19.54a0,0,0,0,1,0,0V0A0,0,0,0,1,19.54,0Z"/></svg>